<svg width="40" height="40" viewBox="0 0 40 40" fill="none" xmlns="http://www.w3.org/2000/svg">
<g clip-path="url(#clip0_86_24)">
<path d="M20.0065 0C11.6567 0 9.21471 0.00861719 8.74003 0.0479999C7.02651 0.190473 5.96026 0.460347 4.79861 1.03884C3.90341 1.48351 3.19738 1.99893 2.50058 2.72146C1.2316 4.03911 0.462512 5.66016 0.184097 7.5871C0.0487445 8.52256 0.00936147 8.71334 0.00136399 13.4916C-0.00170499 15.0844 0.00136399 17.1805 0.00136399 19.9921C0.00136399 28.3375 0.010586 30.7777 0.0505885 31.2516C0.189025 32.9194 0.450508 33.9687 1.00425 35.1165C2.06252 37.3136 4.08366 38.963 6.46477 39.5784C7.28923 39.7907 8.19983 39.9077 9.36884 39.9631C9.86413 39.9846 14.9124 40 19.9638 40C25.0151 40 30.0665 39.9938 30.5495 39.9692C31.9031 39.9055 32.6891 39.8 33.5581 39.5753C35.9546 38.9568 37.9389 37.3321 39.0186 35.1042C39.5616 33.9841 39.837 32.8948 39.9616 31.314C39.9886 30.9694 40 25.4745 40 19.9869C40 14.4985 39.9877 9.01368 39.9606 8.66903C39.8345 7.06274 39.5592 5.98266 38.9987 4.84102C38.5387 3.90647 38.0281 3.20856 37.2867 2.49499C35.9635 1.23087 34.3454 0.461571 32.4171 0.183398C31.4828 0.0483024 31.2967 0.00829984 26.5161 0H20.0065Z" fill="url(#paint0_radial_86_24)"/>
<path d="M20.0065 0C11.6567 0 9.21471 0.00861719 8.74003 0.0479999C7.02651 0.190473 5.96026 0.460347 4.79861 1.03884C3.90341 1.48351 3.19738 1.99893 2.50058 2.72146C1.2316 4.03911 0.462512 5.66016 0.184097 7.5871C0.0487445 8.52256 0.00936147 8.71334 0.00136399 13.4916C-0.00170499 15.0844 0.00136399 17.1805 0.00136399 19.9921C0.00136399 28.3375 0.010586 30.7777 0.0505885 31.2516C0.189025 32.9194 0.450508 33.9687 1.00425 35.1165C2.06252 37.3136 4.08366 38.963 6.46477 39.5784C7.28923 39.7907 8.19983 39.9077 9.36884 39.9631C9.86413 39.9846 14.9124 40 19.9638 40C25.0151 40 30.0665 39.9938 30.5495 39.9692C31.9031 39.9055 32.6891 39.8 33.5581 39.5753C35.9546 38.9568 37.9389 37.3321 39.0186 35.1042C39.5616 33.9841 39.837 32.8948 39.9616 31.314C39.9886 30.9694 40 25.4745 40 19.9869C40 14.4985 39.9877 9.01368 39.9606 8.66903C39.8345 7.06274 39.5592 5.98266 38.9987 4.84102C38.5387 3.90647 38.0281 3.20856 37.2867 2.49499C35.9635 1.23087 34.3454 0.461571 32.4171 0.183398C31.4828 0.0483024 31.2967 0.00829984 26.5161 0H20.0065Z" fill="url(#paint1_radial_86_24)"/>
<path d="M20.0065 0C11.6567 0 9.21471 0.00861719 8.74003 0.0479999C7.02651 0.190473 5.96026 0.460347 4.79861 1.03884C3.90341 1.48351 3.19738 1.99893 2.50058 2.72146C1.2316 4.03911 0.462512 5.66016 0.184097 7.5871C0.0487445 8.52256 0.00936147 8.71334 0.00136399 13.4916C-0.00170499 15.0844 0.00136399 17.1805 0.00136399 19.9921C0.00136399 28.3375 0.010586 30.7777 0.0505885 31.2516C0.189025 32.9194 0.450508 33.9687 1.00425 35.1165C2.06252 37.3136 4.08366 38.963 6.46477 39.5784C7.28923 39.7907 8.19983 39.9077 9.36884 39.9631C9.86413 39.9846 14.9124 40 19.9638 40C25.0151 40 30.0665 39.9938 30.5495 39.9692C31.9031 39.9055 32.6891 39.8 33.5581 39.5753C35.9546 38.9568 37.9389 37.3321 39.0186 35.1042C39.5616 33.9841 39.837 32.8948 39.9616 31.314C39.9886 30.9694 40 25.4745 40 19.9869C40 14.4985 39.9877 9.01368 39.9606 8.66903C39.8345 7.06274 39.5592 5.98266 38.9987 4.84102C38.5387 3.90647 38.0281 3.20856 37.2867 2.49499C35.9635 1.23087 34.3454 0.461571 32.4171 0.183398C31.4828 0.0483024 31.2967 0.00829984 26.5161 0H20.0065Z" fill="url(#paint2_radial_86_24)"/>
<path d="M20.0065 0C11.6567 0 9.21471 0.00861719 8.74003 0.0479999C7.02651 0.190473 5.96026 0.460347 4.79861 1.03884C3.90341 1.48351 3.19738 1.99893 2.50058 2.72146C1.2316 4.03911 0.462512 5.66016 0.184097 7.5871C0.0487445 8.52256 0.00936147 8.71334 0.00136399 13.4916C-0.00170499 15.0844 0.00136399 17.1805 0.00136399 19.9921C0.00136399 28.3375 0.010586 30.7777 0.0505885 31.2516C0.189025 32.9194 0.450508 33.9687 1.00425 35.1165C2.06252 37.3136 4.08366 38.963 6.46477 39.5784C7.28923 39.7907 8.19983 39.9077 9.36884 39.9631C9.86413 39.9846 14.9124 40 19.9638 40C25.0151 40 30.0665 39.9938 30.5495 39.9692C31.9031 39.9055 32.6891 39.8 33.5581 39.5753C35.9546 38.9568 37.9389 37.3321 39.0186 35.1042C39.5616 33.9841 39.837 32.8948 39.9616 31.314C39.9886 30.9694 40 25.4745 40 19.9869C40 14.4985 39.9877 9.01368 39.9606 8.66903C39.8345 7.06274 39.5592 5.98266 38.9987 4.84102C38.5387 3.90647 38.0281 3.20856 37.2867 2.49499C35.9635 1.23087 34.3454 0.461571 32.4171 0.183398C31.4828 0.0483024 31.2967 0.00829984 26.5161 0H20.0065Z" fill="url(#paint3_radial_86_24)"/>
<path d="M20.0081 5.13611C15.969 5.13611 15.4621 5.15375 13.8757 5.22589C12.2924 5.29834 11.2117 5.54882 10.2661 5.91634C9.28792 6.29591 8.45816 6.80367 7.63152 7.63001C6.80426 8.45606 6.29611 9.28518 5.91501 10.2623C5.54629 11.2076 5.29532 12.2878 5.22407 13.8693C5.15312 15.4545 5.13452 15.9613 5.13452 19.9974C5.13452 24.0334 5.1525 24.5384 5.22437 26.1236C5.29719 27.7057 5.54785 28.7856 5.91531 29.7306C6.29549 30.708 6.80362 31.5371 7.63058 32.3632C8.45694 33.1898 9.28668 33.6988 10.2642 34.0784C11.2105 34.4459 12.2915 34.6964 13.8745 34.7688C15.4609 34.841 15.9674 34.8586 20.0062 34.8586C24.0456 34.8586 24.5509 34.841 26.1373 34.7688C27.7206 34.6964 28.8025 34.4459 29.7488 34.0784C30.7266 33.6988 31.5552 33.1898 32.3815 32.3632C33.2088 31.5371 33.7169 30.708 34.098 29.7309C34.4636 28.7856 34.7146 27.7054 34.789 26.1239C34.8602 24.5387 34.8788 24.0334 34.8788 19.9974C34.8788 15.9613 34.8602 15.4548 34.789 13.8696C34.7146 12.2875 34.4636 11.2076 34.098 10.2626C33.7169 9.28518 33.2088 8.45605 32.3815 7.63001C31.5542 6.80335 30.7269 6.29559 29.7479 5.91632C28.7998 5.54882 27.7184 5.29834 26.1351 5.22589C24.5487 5.15375 24.0437 5.13611 20.0034 5.13611H20.0081ZM18.6739 7.81424C19.0699 7.81362 19.5117 7.81424 20.0081 7.81424C23.979 7.81424 24.4496 7.82848 26.0177 7.89968C27.4678 7.96595 28.2547 8.20805 28.779 8.41146C29.473 8.68082 29.9679 9.00282 30.4881 9.52296C31.0086 10.0431 31.3308 10.5385 31.601 11.232C31.8046 11.7552 32.0472 12.5417 32.1132 13.9906C32.1844 15.5573 32.1999 16.0279 32.1999 19.994C32.1999 23.96 32.1844 24.4307 32.1132 25.9973C32.0469 27.4463 31.8046 28.2327 31.601 28.7559C31.3315 29.4494 31.0086 29.9433 30.4881 30.4631C29.9676 30.9832 29.4733 31.3052 28.779 31.5746C28.2554 31.7789 27.4678 32.0204 26.0177 32.0867C24.4499 32.1579 23.979 32.1734 20.0081 32.1734C16.0368 32.1734 15.5662 32.1579 13.9984 32.0867C12.5484 32.0198 11.7614 31.7777 11.2368 31.5743C10.5428 31.3049 10.047 30.9829 9.5265 30.4628C9.00597 29.9426 8.68374 29.4485 8.41355 28.7547C8.20998 28.2314 7.96738 27.445 7.90139 25.996C7.83013 24.4294 7.81587 23.9588 7.81587 19.9902C7.81587 16.0217 7.83013 15.5535 7.90139 13.9869C7.9677 12.5379 8.20998 11.7515 8.41355 11.2277C8.68311 10.5342 9.00597 10.0388 9.5265 9.51864C10.047 8.99848 10.5428 8.6765 11.2368 8.40652C11.7611 8.20217 12.5484 7.96069 13.9984 7.89411C15.3704 7.83218 15.9021 7.81362 18.6739 7.8105L18.6739 7.81424ZM27.9468 10.2818C26.9615 10.2818 26.1621 11.0797 26.1621 12.0645C26.1621 13.0491 26.9615 13.8479 27.9468 13.8479C28.9321 13.8479 29.7315 13.0491 29.7315 12.0645C29.7315 11.08 28.932 10.2812 27.9468 10.2812L27.9468 10.2818ZM20.0081 12.3655C15.7902 12.3655 12.3705 15.7826 12.3705 19.9974C12.3705 24.2121 15.7902 27.6277 20.0081 27.6277C24.2259 27.6277 27.6444 24.2121 27.6444 19.9974C27.6444 15.7826 24.2256 12.3655 20.0078 12.3655H20.0081ZM20.0081 15.0436C22.7458 15.0436 24.9655 17.2613 24.9655 19.9974C24.9655 22.7331 22.7458 24.9511 20.0081 24.9511C17.27 24.9511 15.0506 22.7331 15.0506 19.9974C15.0506 17.2613 17.27 15.0436 20.0081 15.0436Z" fill="#F0F0F0"/>
</g>
<defs>
<radialGradient id="paint0_radial_86_24" cx="0" cy="0" r="1" gradientUnits="userSpaceOnUse" gradientTransform="translate(38.7084 18.7485) rotate(164.25) scale(25.5577 18.4131)">
<stop stop-color="#FF005F"/>
<stop offset="1" stop-color="#FC01D8"/>
</radialGradient>
<radialGradient id="paint1_radial_86_24" cx="0" cy="0" r="1" gradientUnits="userSpaceOnUse" gradientTransform="translate(10.6247 43.0808) rotate(-90) scale(31.9288 33.8757)">
<stop stop-color="#FFCC00"/>
<stop offset="0.1242" stop-color="#FFCC00"/>
<stop offset="0.5672" stop-color="#FE4A05"/>
<stop offset="0.6942" stop-color="#FF0F3F"/>
<stop offset="1" stop-color="#FE0657" stop-opacity="0"/>
</radialGradient>
<radialGradient id="paint2_radial_86_24" cx="0" cy="0" r="1" gradientUnits="userSpaceOnUse" gradientTransform="translate(21.0108 39.4359) rotate(-59.8703) scale(13.2028 17.1886)">
<stop stop-color="#FFCC00"/>
<stop offset="1" stop-color="#FFCC00" stop-opacity="0"/>
</radialGradient>
<radialGradient id="paint3_radial_86_24" cx="0" cy="0" r="1" gradientUnits="userSpaceOnUse" gradientTransform="translate(5.42714 1.62879) rotate(164.274) scale(25.2742 8.61091)">
<stop stop-color="#780CFF"/>
<stop offset="1" stop-color="#820BFF" stop-opacity="0"/>
</radialGradient>
<clipPath id="clip0_86_24">
<rect width="40" height="40" fill="white"/>
</clipPath>
</defs>
</svg>
