<svg width="71" height="70" viewBox="0 0 71 70" fill="none" xmlns="http://www.w3.org/2000/svg">
<path d="M44.3707 14.5833C47.2109 15.1391 49.8212 16.5324 51.8674 18.5848C53.9137 20.6372 55.3027 23.2553 55.8569 26.1041M44.3707 2.91663C50.2716 3.57415 55.7743 6.22464 59.9752 10.4329C64.1761 14.6412 66.8255 20.1571 67.4885 26.075M64.5806 49.35V58.1C64.5839 58.9123 64.418 59.7163 64.0936 60.4606C63.7691 61.2048 63.2933 61.8729 62.6965 62.4221C62.0998 62.9712 61.3952 63.3893 60.628 63.6495C59.8609 63.9098 59.048 64.0064 58.2414 63.9333C49.2933 62.9581 40.698 59.8912 33.1461 54.9791C26.1201 50.5011 20.1633 44.5263 15.6987 37.4791C10.7843 29.8701 7.72591 21.207 6.77141 12.1916C6.69874 11.3851 6.7943 10.5722 7.05202 9.8047C7.30973 9.03722 7.72395 8.33197 8.2683 7.73385C8.81264 7.13574 9.47519 6.65786 10.2138 6.33065C10.9523 6.00344 11.7507 5.83406 12.5581 5.83329H21.2819C22.6931 5.81936 24.0612 6.32061 25.1312 7.2436C26.2013 8.16659 26.9002 9.44835 27.0977 10.85C27.4659 13.6502 28.1487 16.3996 29.1332 19.0458C29.5245 20.0897 29.6091 21.2243 29.3772 22.315C29.1453 23.4058 28.6065 24.407 27.8247 25.2L24.1316 28.9041C28.2712 36.2061 34.299 42.2521 41.5791 46.4041L45.2721 42.7C46.0627 41.9158 47.0609 41.3754 48.1484 41.1427C49.2358 40.9101 50.367 40.995 51.4078 41.3875C54.0461 42.3749 56.7872 43.0598 59.579 43.4291C60.9916 43.629 62.2816 44.3426 63.2038 45.4343C64.126 46.526 64.616 47.9196 64.5806 49.35Z" stroke="#FF3800" stroke-width="2" stroke-linecap="round" stroke-linejoin="round"/>
</svg>
