<svg width="40" height="40" viewBox="0 0 40 40" fill="none" xmlns="http://www.w3.org/2000/svg">
<g clip-path="url(#clip0_86_31)">
<path d="M35 0H5C2.23858 0 0 2.23858 0 5V35C0 37.7614 2.23858 40 5 40H35C37.7614 40 40 37.7614 40 35V5C40 2.23858 37.7614 0 35 0Z" fill="#333333"/>
<path d="M17.2701 16.619V15.531C16.8971 15.48 16.5181 15.448 16.1311 15.448C11.4711 15.448 7.68005 19.239 7.68005 23.899C7.68005 26.758 9.10905 29.288 11.2881 30.818C9.88105 29.308 9.01805 27.285 9.01805 25.064C9.01805 20.471 12.7021 16.725 17.2701 16.618V16.619Z" fill="#25F4EE"/>
<path d="M17.47 28.925C19.549 28.925 21.245 27.271 21.322 25.211L21.329 6.81002H24.691C24.621 6.43202 24.583 6.04302 24.583 5.64502H19.991L19.984 24.046C19.907 26.107 18.211 27.76 16.132 27.76C15.486 27.76 14.877 27.598 14.342 27.317C15.044 28.289 16.183 28.926 17.471 28.926L17.47 28.925Z" fill="#25F4EE"/>
<path d="M30.9701 13.055V12.032C29.6881 12.032 28.4931 11.651 27.4911 10.998C28.3831 12.022 29.5951 12.761 30.9701 13.055Z" fill="#25F4EE"/>
<path d="M27.492 10.9981C26.515 9.87606 25.921 8.41106 25.921 6.81006H24.691C25.015 8.55906 26.053 10.0601 27.492 10.9981Z" fill="#FE2C55"/>
<path d="M16.131 20.041C14.003 20.041 12.271 21.772 12.271 23.901C12.271 25.383 13.112 26.671 14.34 27.317C13.882 26.683 13.609 25.906 13.609 25.066C13.609 22.938 15.341 21.206 17.469 21.206C17.866 21.206 18.247 21.272 18.608 21.384V16.697C18.235 16.646 17.856 16.614 17.469 16.614C17.402 16.614 17.336 16.618 17.269 16.619V20.219C16.909 20.106 16.527 20.041 16.13 20.041H16.131Z" fill="#FE2C55"/>
<path d="M30.9701 13.0551V16.6241C28.5891 16.6241 26.3831 15.8621 24.5821 14.5701V23.9011C24.5821 28.5611 20.7911 32.3521 16.1311 32.3521C14.3301 32.3521 12.6601 31.7841 11.2881 30.8201C12.8321 32.4771 15.0311 33.5171 17.4701 33.5171C22.1301 33.5171 25.9211 29.7261 25.9211 25.0661V15.7351C27.7221 17.0281 29.9281 17.7891 32.3091 17.7891V13.1971C31.8501 13.1971 31.4021 13.1471 30.9711 13.0551H30.9701Z" fill="#FE2C55"/>
<path d="M24.5821 23.9V14.569C26.3831 15.862 28.5891 16.623 30.9701 16.623V13.054C29.5951 12.76 28.3831 12.021 27.4911 10.997C26.0521 10.059 25.0141 8.55796 24.6901 6.80896H21.3281L21.3211 25.21C21.2441 27.271 19.5481 28.924 17.4691 28.924C16.1811 28.924 15.0421 28.288 14.3401 27.315C13.1111 26.668 12.2711 25.381 12.2711 23.899C12.2711 21.771 14.0031 20.039 16.1311 20.039C16.5281 20.039 16.9091 20.105 17.2701 20.217V16.617C12.7021 16.724 9.01807 20.47 9.01807 25.063C9.01807 27.285 9.88107 29.307 11.2881 30.817C12.6611 31.781 14.3301 32.349 16.1311 32.349C20.7911 32.349 24.5821 28.558 24.5821 23.898V23.9Z" fill="#F0F0F0"/>
</g>
<defs>
<clipPath id="clip0_86_31">
<rect width="40" height="40" fill="white"/>
</clipPath>
</defs>
</svg>
